# xmcd CD database file
# Copyright (C) 1993-1996 Ti Kan
#
# Track frame offsets:
# 150
# 16522
# 31810
# 48167
# 63922
# 76642
# 93762
# 111007
# 129752
# 145297
#
# Disc length: 2126 seconds
# Revision: 0
# Processed by: cddbd v1.4b41PL1 Copyright (c) Steve Scherf et al.
# Submitted via: CDSpectrumPro v3.2.327
#
DISCID=63084c0a
DTITLE=Murray McLauchlan - Swinging On A Star
DYEAR=1900
DGENRE=
TTITLE0=Swinging On A Star
TTITLE1=Love With A Capital "L"
TTITLE2=My Imaginary Tree
TTITLE3=I Can't Make That Mistake Again
TTITLE4=You Can't Be Fooled
TTITLE5=Bobby And Caroline
TTITLE6=Please Don't Call It Runnin' Away
TTITLE7=Heart Upon His Sleeve
TTITLE8=Now I'm Blessed
TTITLE9=The Natural State
EXTD=
EXTT0=
EXTT1=
EXTT2=
EXTT3=
EXTT4=
EXTT5=
EXTT6=
EXTT7=
EXTT8=
EXTT9=
PLAYORDER=
